<svg width="12" height="13" viewBox="0 0 12 13" fill="none" xmlns="http://www.w3.org/2000/svg">
<path d="M9.93441 5.74998C8.79722 5.75116 7.87285 6.68279 7.87402 7.82701C7.87449 8.45209 8.18598 9.16458 8.7998 9.94505C9.23785 10.5022 9.67191 10.8893 9.69019 10.9055C9.83262 11.032 10.047 11.0311 10.1885 10.905C10.2068 10.8889 10.6401 10.5008 11.0772 9.94294C11.5462 9.34428 11.999 8.58062 11.999 7.82303C11.998 6.68101 11.0806 5.74998 9.93441 5.74998ZM9.93863 10.1056C9.42629 9.58529 8.62473 8.60607 8.62402 7.82631C8.62332 7.09553 9.2116 6.50069 9.93511 6.49998C10.6627 6.49998 11.2481 7.09241 11.249 7.82373C11.2497 8.60349 10.4498 9.58458 9.93863 10.1056Z" fill="#263238"/>
<path d="M9.93621 7.24998C9.43981 7.24998 9.18272 7.85469 9.53871 8.21068C9.82102 8.49235 10.3022 8.39898 10.4563 8.0274C10.6088 7.6595 10.3369 7.24998 9.93621 7.24998Z" fill="#263238"/>
<path d="M1.81384 5.6553C1.95594 5.78144 2.16981 5.78165 2.31212 5.6553C2.3304 5.63913 2.76423 5.25147 3.20181 4.69413C3.8147 3.91296 4.12548 3.20023 4.12548 2.57492C4.12548 1.43093 3.20017 0.5 2.06298 0.5C0.925798 0.5 0.000488281 1.43093 0.000488281 2.57492C0.000488281 3.20023 0.311269 3.91296 0.924158 4.69413C1.36173 5.25147 1.79556 5.63913 1.81384 5.6553ZM2.06298 1.25C2.78673 1.25 3.37548 1.84437 3.37548 2.57492C3.37548 3.35491 2.57439 4.3353 2.06275 4.85585C1.55087 4.33624 0.750486 3.35726 0.750486 2.57492C0.750486 1.84437 1.33923 1.25 2.06298 1.25Z" fill="#263238"/>
<path d="M2.0625 3.12499C2.37316 3.12499 2.625 2.87315 2.625 2.56249C2.625 2.25184 2.37316 2 2.0625 2C1.75184 2 1.5 2.25184 1.5 2.56249C1.5 2.87315 1.75184 3.12499 2.0625 3.12499Z" fill="#263238"/>
<path d="M10.5025 11.937C10.5029 12.4496 9.86589 12.6971 9.52122 12.3125H1.68749C0.757029 12.3125 0 11.5554 0 10.625C0 9.69451 0.757029 8.93748 1.68749 8.93748H5.4492C5.95967 8.93748 6.37498 8.52217 6.37498 8.0117C6.37498 7.50123 5.95967 7.08592 5.4492 7.08592H2.48179C2.13421 7.4695 1.50039 7.22486 1.5 6.71139C1.4992 6.19729 2.13227 5.95246 2.48179 6.33592H5.4492C6.37334 6.33592 7.12498 7.08756 7.12498 8.0117C7.12498 8.93584 6.37334 9.68748 5.4492 9.68748H1.68749C1.17047 9.68748 0.749998 10.1079 0.749998 10.625C0.749998 11.142 1.17047 11.5625 1.68749 11.5625H9.52099C9.86985 11.1775 10.5018 11.4263 10.5025 11.937Z" fill="#263238"/>
</svg>
