<?xml version="1.0" encoding="UTF-8"?>
<svg xmlns="http://www.w3.org/2000/svg" width="50pt" height="50pt" viewBox="0 0 50 50" version="1.1">
<g id="surface1">
<path style=" stroke:none;fill-rule:nonzero;fill:rgb(0%,67.45098%,92.941176%);fill-opacity:1;" d="M 48.507812 34.339844 C 45.910156 42.609375 33.777344 52.917969 19.789062 49.214844 C 11.46875 47.011719 -4.765625 39.226562 1.347656 16.519531 C 5.195312 2.195312 22.765625 -2.152344 34.835938 0.960938 C 49.394531 4.714844 52.25 22.4375 48.507812 34.339844 Z M 48.507812 34.339844 "/>
<path style=" stroke:none;fill-rule:nonzero;fill:rgb(100%,100%,100%);fill-opacity:1;" d="M 28.847656 27.878906 L 28.847656 28.984375 C 29.085938 29 29.324219 28.996094 29.5625 28.972656 C 29.773438 28.953125 29.988281 28.945312 30.199219 28.957031 L 30.222656 28.957031 L 30.222656 28.976562 C 30.183594 29.386719 29.941406 29.75 29.574219 29.945312 C 29.113281 30.1875 28.472656 30.171875 27.9375 29.910156 C 27.53125 29.707031 27.234375 29.3125 27.113281 28.800781 C 26.960938 28.167969 27.140625 27.492188 27.570312 27.066406 C 27.671875 26.960938 27.792969 26.875 27.925781 26.816406 C 27.972656 26.796875 29.011719 26.367188 29.644531 27.054688 L 30.726562 25.847656 C 30.597656 25.703125 30.4375 25.585938 30.261719 25.503906 L 30.230469 25.488281 C 30.101562 25.417969 29.964844 25.359375 29.824219 25.320312 C 29.402344 25.1875 28.964844 25.132812 28.523438 25.152344 C 28.292969 25.160156 28.066406 25.195312 27.84375 25.25 C 27.304688 25.386719 26.574219 25.683594 26.171875 26.320312 C 25.457031 27.445312 25.386719 28.835938 25.988281 29.953125 C 26.507812 30.914062 27.40625 31.484375 28.460938 31.519531 C 29.457031 31.550781 30.226562 31.28125 30.753906 30.710938 C 31.355469 30.066406 31.597656 29.074219 31.457031 27.835938 C 30.75 27.828125 29.054688 27.875 28.847656 27.878906 Z M 28.847656 27.878906 "/>
<path style=" stroke:none;fill-rule:nonzero;fill:rgb(100%,100%,100%);fill-opacity:1;" d="M 41.664062 20.007812 C 41.046875 19.359375 39.964844 19.761719 39.84375 19.816406 C 39.703125 19.890625 39.578125 19.984375 39.472656 20.097656 C 39.054688 20.539062 38.953125 21.289062 39.121094 21.886719 C 39.246094 22.328125 39.527344 22.792969 39.984375 22.992188 C 40.847656 23.378906 42.183594 23.128906 42.226562 21.945312 C 41.859375 21.921875 41.253906 22.003906 40.871094 21.96875 L 40.832031 20.824219 C 40.832031 20.824219 42.71875 20.757812 43.460938 20.742188 C 43.792969 22.875 42.945312 24.542969 40.597656 24.550781 C 38.199219 24.558594 36.761719 21.742188 38.109375 19.425781 C 38.453125 18.839844 39.105469 18.484375 39.742188 18.296875 C 40.390625 18.113281 41.078125 18.113281 41.726562 18.296875 C 41.871094 18.332031 42.011719 18.382812 42.144531 18.449219 C 42.328125 18.546875 42.53125 18.644531 42.660156 18.808594 Z M 41.664062 20.007812 "/>
<path style=" stroke:none;fill-rule:nonzero;fill:rgb(100%,100%,100%);fill-opacity:1;" d="M 18.804688 25.128906 C 18.753906 26.144531 18.746094 29.785156 18.714844 29.984375 C 18.691406 30.140625 18.707031 30.972656 17.714844 31.566406 C 17.347656 31.785156 16.6875 31.910156 16.253906 31.867188 C 14.910156 31.730469 14.511719 30.683594 14.460938 30.457031 C 14.320312 29.824219 14.304688 29.171875 14.289062 28.523438 C 14.265625 27.65625 14.289062 25.191406 14.289062 25.191406 C 14.824219 25.179688 15.355469 25.164062 15.886719 25.144531 L 15.886719 25.378906 C 15.90625 26.65625 15.859375 28.464844 15.875 29.738281 C 15.871094 29.84375 15.882812 29.949219 15.910156 30.046875 C 15.957031 30.203125 16.113281 30.453125 16.519531 30.464844 C 16.789062 30.472656 17.085938 30.21875 17.148438 30.0625 C 17.203125 29.898438 17.226562 29.730469 17.222656 29.558594 C 17.253906 28.308594 17.269531 26.402344 17.300781 25.152344 L 17.320312 25.152344 C 17.574219 25.140625 17.855469 25.160156 18.113281 25.152344 C 18.367188 25.144531 18.804688 25.128906 18.804688 25.128906 Z M 18.804688 25.128906 "/>
<path style=" stroke:none;fill-rule:nonzero;fill:rgb(100%,100%,100%);fill-opacity:1;" d="M 23.628906 28.382812 C 23.710938 26.984375 23.675781 25.066406 23.675781 25.066406 C 23.675781 25.066406 24.757812 25.09375 25.03125 25.097656 C 24.972656 26.746094 24.929688 30.867188 24.929688 31.339844 C 24.894531 31.335938 24.023438 31.355469 24.011719 31.339844 C 23.558594 30.742188 21.589844 27.976562 21.078125 27.4375 C 21.070312 27.429688 21.054688 27.453125 21.046875 27.445312 C 21.039062 27.441406 21.035156 31.015625 21.027344 31.316406 C 20.425781 31.347656 20.125 31.390625 19.683594 31.347656 C 19.683594 31.074219 19.699219 30.15625 19.691406 29.605469 C 19.691406 29.414062 19.683594 29.230469 19.683594 29.039062 C 19.667969 27.914062 19.683594 26.207031 19.722656 25.082031 L 21.023438 25.082031 C 21.03125 25.082031 22.84375 27.484375 23.628906 28.382812 Z M 23.628906 28.382812 "/>
<path style=" stroke:none;fill-rule:nonzero;fill:rgb(100%,100%,100%);fill-opacity:1;" d="M 9.546875 27.550781 C 9.546875 27.550781 9.546875 27.613281 9.546875 27.613281 C 10.289062 27.648438 11.03125 27.660156 11.773438 27.644531 L 11.78125 27.492188 C 11.773438 26.722656 11.792969 25.953125 11.816406 25.1875 L 13.335938 25.199219 L 13.285156 31.441406 C 13.285156 31.441406 12.1875 31.480469 11.773438 31.457031 C 11.792969 30.625 11.789062 28.988281 11.78125 28.96875 L 9.558594 29 C 9.566406 29.785156 9.578125 30.722656 9.566406 31.445312 C 9.082031 31.472656 8.59375 31.472656 8.109375 31.445312 C 8.085938 29.296875 8.015625 27.332031 8.128906 25.183594 C 8.613281 25.183594 9.074219 25.210938 9.5625 25.214844 C 9.5625 25.21875 9.542969 26.769531 9.546875 27.550781 Z M 9.546875 27.550781 "/>
<path style=" stroke:none;fill-rule:nonzero;fill:rgb(100%,100%,100%);fill-opacity:1;" d="M 20.507812 22.253906 L 19.023438 22.347656 C 18.894531 22.722656 18.507812 24.167969 18.507812 24.167969 C 18.0625 24.160156 17.558594 24.179688 17.109375 24.171875 C 17.25 23.546875 18.742188 18.671875 19.011719 17.9375 C 19.710938 17.929688 20.03125 17.957031 20.78125 17.9375 C 20.78125 17.9375 21.828125 21.917969 22.054688 22.652344 C 22.144531 22.953125 22.441406 24.171875 22.441406 24.171875 L 21.0625 24.171875 C 21.0625 24.171875 20.640625 22.683594 20.507812 22.253906 Z M 20.304688 21.320312 C 20.179688 20.710938 20.023438 20.011719 19.847656 19.410156 L 19.746094 19.429688 C 19.617188 20.035156 19.382812 20.8125 19.234375 21.429688 Z M 20.304688 21.320312 "/>
<path style=" stroke:none;fill-rule:nonzero;fill:rgb(100%,100%,100%);fill-opacity:1;" d="M 33.453125 20.570312 L 33.417969 20.578125 C 33.425781 21.71875 33.4375 23.035156 33.445312 24.171875 L 33.445312 24.207031 C 33.230469 24.207031 33.035156 24.214844 32.820312 24.214844 L 32.019531 24.203125 C 32.019531 24.203125 31.972656 20.039062 32.042969 18.222656 L 32.207031 18.222656 C 32.445312 18.207031 33.242188 18.222656 33.242188 18.222656 C 33.546875 18.5625 34.074219 19.179688 34.363281 19.53125 C 34.761719 20.023438 35.203125 20.734375 35.671875 21.324219 C 35.660156 20.507812 35.652344 19.0625 35.636719 18.246094 L 35.636719 18.207031 C 36.050781 18.207031 36.574219 18.214844 36.988281 18.230469 L 37.175781 24.21875 C 37.175781 24.21875 36.335938 24.238281 36.125 24.21875 C 36.117188 24.210938 33.5625 20.640625 33.453125 20.570312 Z M 33.453125 20.570312 "/>
<path style=" stroke:none;fill-rule:nonzero;fill:rgb(100%,100%,100%);fill-opacity:1;" d="M 31.105469 23.921875 C 31.105469 23.972656 31.117188 24.0625 31.078125 24.0625 L 29.601562 24.0625 C 29.601562 22.304688 29.613281 19.8125 29.597656 18.054688 C 30.105469 18.027344 30.539062 18.054688 31.050781 18.066406 C 30.984375 18.996094 31.066406 23.132812 31.105469 23.921875 Z M 31.105469 23.921875 "/>
<path style=" stroke:none;fill-rule:nonzero;fill:rgb(100%,100%,100%);fill-opacity:1;" d="M 25.378906 22.941406 C 25.085938 22.375 24.503906 21.027344 24.386719 20.78125 C 24.371094 20.753906 24.355469 20.78125 24.351562 20.78125 C 24.351562 20.8125 24.34375 23.972656 24.390625 24.363281 L 23.027344 24.351562 C 23.039062 24.03125 23.140625 18.464844 23.140625 18.464844 C 23.636719 18.480469 24.308594 18.464844 24.867188 18.464844 C 24.875 18.464844 25.15625 19.1875 25.21875 19.34375 C 25.375 19.742188 25.828125 21.003906 25.828125 21.003906 L 25.890625 21.003906 C 25.890625 21.003906 26.636719 19.089844 26.9375 18.488281 C 27.519531 18.445312 28.613281 18.480469 28.613281 18.480469 C 28.613281 18.480469 28.804688 24.222656 28.828125 24.363281 C 28.5625 24.378906 27.460938 24.363281 27.460938 24.363281 C 27.488281 23.210938 27.460938 20.648438 27.445312 20.671875 C 27.445312 20.671875 27.21875 21.199219 27.121094 21.398438 C 26.867188 21.921875 26.597656 22.421875 26.339844 22.949219 Z M 25.378906 22.941406 "/>
<path style=" stroke:none;fill-rule:nonzero;fill:rgb(100%,100%,100%);fill-opacity:1;" d="M 15.546875 23.992188 C 14.921875 24.28125 14.484375 24.425781 13.710938 24.34375 C 12.394531 24.207031 11.753906 23.210938 11.398438 22.277344 C 10.988281 21.203125 11.539062 20.085938 11.625 19.882812 C 12 19.019531 12.832031 18.433594 13.785156 18.363281 C 14.515625 18.308594 15.269531 18.464844 15.847656 18.898438 C 16.425781 19.335938 16.84375 19.769531 17.039062 20.644531 C 17.074219 20.804688 17.382812 23.148438 15.546875 23.992188 Z M 15.722656 21.765625 C 15.941406 20.859375 15.320312 19.550781 14.046875 19.722656 C 12.578125 19.917969 12.652344 21.117188 12.660156 21.527344 C 12.6875 22.335938 13.417969 23.011719 14.054688 23.011719 C 14.832031 23.019531 15.519531 22.507812 15.722656 21.765625 Z M 15.722656 21.765625 "/>
<path style=" stroke:none;fill-rule:nonzero;fill:rgb(100%,100%,100%);fill-opacity:1;" d="M 33.65625 26.390625 L 33.640625 27.46875 C 33.640625 27.46875 34.726562 27.476562 35.261719 27.5 C 35.273438 27.894531 35.28125 28.269531 35.273438 28.683594 C 34.6875 28.664062 34.230469 28.667969 33.664062 28.671875 C 33.648438 28.953125 33.648438 29.625 33.628906 29.933594 C 34.496094 29.945312 34.984375 29.941406 35.960938 29.972656 C 35.960938 30.449219 35.960938 30.792969 35.933594 31.257812 C 34.28125 31.257812 32.09375 31.222656 32.09375 31.222656 C 32.113281 29.710938 32.128906 27.582031 32.144531 26.070312 C 32.144531 25.800781 32.144531 25.265625 32.140625 24.992188 L 35.988281 24.996094 C 35.988281 24.996094 35.96875 26.371094 35.953125 26.378906 C 35.9375 26.382812 33.65625 26.390625 33.65625 26.390625 Z M 33.65625 26.390625 "/>
<path style=" stroke:none;fill-rule:nonzero;fill:rgb(100%,100%,100%);fill-opacity:1;" d="M 38.226562 28.03125 C 38.53125 28.046875 38.828125 28.058594 39.132812 28.066406 C 39.429688 28.054688 39.96875 27.898438 40.011719 27.289062 C 40.058594 26.582031 39.632812 26.441406 39.277344 26.40625 L 38.28125 26.390625 C 38.28125 26.460938 38.226562 28.03125 38.226562 28.03125 Z M 41.242188 31.625 C 41.167969 31.632812 39.671875 31.570312 39.671875 31.570312 C 39.410156 30.953125 38.882812 29.421875 38.882812 29.421875 C 38.792969 29.410156 38.707031 29.402344 38.617188 29.40625 C 38.460938 29.40625 38.304688 29.40625 38.144531 29.40625 C 38.097656 30.054688 38.09375 30.925781 38.09375 31.542969 C 37.804688 31.503906 37.058594 31.527344 36.734375 31.503906 C 36.734375 31.503906 36.742188 31.109375 36.742188 31.046875 C 36.769531 29.09375 36.859375 27.210938 36.886719 25.257812 L 36.886719 25.148438 C 37.734375 25.144531 38.578125 25.152344 39.425781 25.179688 C 39.597656 25.179688 40.863281 25.402344 41.292969 26.394531 C 41.578125 27.09375 41.503906 27.882812 41.089844 28.515625 C 40.929688 28.757812 40.542969 29.136719 40.246094 29.1875 C 40.242188 29.183594 41.234375 31.597656 41.242188 31.625 Z M 41.242188 31.625 "/>
<path style=" stroke:none;fill-rule:nonzero;fill:rgb(100%,100%,100%);fill-opacity:1;" d="M 7.898438 20.632812 C 8.191406 20.640625 8.464844 20.640625 8.746094 20.625 C 9.019531 20.628906 9.28125 20.492188 9.429688 20.261719 C 9.550781 20.058594 9.511719 19.734375 9.394531 19.523438 C 9.136719 19.125 8.421875 19.132812 7.90625 19.164062 C 7.902344 19.503906 7.898438 20.632812 7.898438 20.632812 Z M 10.8125 24.1875 L 9.367188 24.167969 C 9.125 23.597656 8.507812 21.902344 8.507812 21.902344 C 8.425781 21.890625 8.34375 21.886719 8.261719 21.886719 L 7.824219 21.886719 C 7.785156 22.492188 7.824219 24.160156 7.824219 24.160156 L 6.542969 24.136719 C 6.542969 24.136719 6.542969 24.121094 6.542969 24.066406 C 6.554688 22.25 6.644531 17.921875 6.644531 17.921875 C 7.425781 17.914062 8.210938 17.941406 8.988281 17.964844 C 9.765625 17.984375 10.78125 18.4375 10.855469 19.617188 C 10.949219 21.128906 10.039062 21.625 9.769531 21.671875 C 9.765625 21.675781 10.511719 23.519531 10.8125 24.1875 Z M 10.8125 24.1875 "/>
<path style=" stroke:none;fill-rule:nonzero;fill:rgb(98.039216%,98.431373%,98.823529%);fill-opacity:1;" d="M 18.679688 37.375 C 16.160156 36.90625 13.742188 36.023438 11.527344 34.753906 C 11.628906 34.28125 11.875 33.824219 12.003906 33.355469 C 12.140625 32.875 12.222656 32.332031 12.898438 32.320312 C 13.679688 32.304688 14.449219 32.738281 14.652344 33.367188 C 14.9375 34.238281 14.789062 34.847656 15.042969 35.859375 C 15.429688 35.023438 15.734375 34.742188 16.070312 34.023438 C 16.21875 33.707031 16.375 33.394531 16.648438 33.164062 C 17.296875 32.609375 18.027344 32.855469 18.175781 33.707031 C 18.410156 34.953125 18.617188 36.101562 18.679688 37.375 Z M 18.679688 37.375 "/>
<path style=" stroke:none;fill-rule:nonzero;fill:rgb(98.039216%,98.431373%,98.823529%);fill-opacity:1;" d="M 28.761719 37.507812 C 27.011719 38 24.953125 37.824219 23.160156 37.851562 C 23.503906 36.890625 23.9375 34.730469 24.292969 33.777344 C 24.492188 33.195312 24.945312 32.730469 25.527344 32.511719 C 26.566406 32.101562 27.074219 32.308594 27.582031 33.347656 C 28.007812 34.21875 28.492188 36.574219 28.761719 37.507812 Z M 28.761719 37.507812 "/>
<path style=" stroke:none;fill-rule:nonzero;fill:rgb(98.039216%,98.431373%,98.823529%);fill-opacity:1;" d="M 23.105469 37.828125 C 21.707031 37.90625 20.210938 37.800781 18.851562 37.433594 C 19.144531 36.453125 19.550781 35.144531 19.851562 34.164062 C 19.945312 33.804688 20.167969 33.488281 20.476562 33.269531 C 21.839844 32.332031 22.515625 32.617188 22.804688 34.285156 C 22.992188 35.355469 23.078125 36.742188 23.105469 37.828125 Z M 23.105469 37.828125 "/>
<path style=" stroke:none;fill-rule:nonzero;fill:rgb(98.039216%,98.431373%,98.823529%);fill-opacity:1;" d="M 39.007812 35.683594 C 37.261719 35.90625 35.589844 36.050781 33.847656 36.273438 C 34.097656 33.496094 35.898438 32.175781 37.652344 32.53125 C 38.0625 32.609375 38.359375 33.535156 38.527344 33.882812 C 38.777344 34.390625 38.910156 35.117188 39.007812 35.683594 Z M 39.007812 35.683594 "/>
<path style=" stroke:none;fill-rule:nonzero;fill:rgb(98.039216%,98.431373%,98.823529%);fill-opacity:1;" d="M 33.285156 36.484375 C 31.707031 36.769531 30.46875 37.15625 28.890625 37.441406 C 28.820312 36.363281 28.867188 35.496094 29.195312 34.480469 C 29.554688 33.367188 30.660156 32.769531 31.53125 32.742188 C 32.765625 33.007812 32.753906 33.933594 33.007812 34.8125 C 33.082031 35.402344 33.261719 35.878906 33.285156 36.484375 Z M 33.285156 36.484375 "/>
<path style=" stroke:none;fill-rule:nonzero;fill:rgb(92.156863%,12.941176%,16.862745%);fill-opacity:1;" d="M 28.605469 36.9375 L 29.113281 36.878906 L 32.734375 36.21875 L 33.402344 36.085938 L 38.640625 35.417969 C 39.230469 35.457031 39.832031 35.445312 40.410156 35.546875 C 41.359375 35.714844 41.472656 36.042969 40.890625 36.824219 C 40.265625 37.667969 39.488281 38.351562 38.683594 38.988281 C 35.878906 41.210938 32.878906 43.0625 29.464844 44.023438 C 27.570312 44.558594 25.632812 44.492188 23.6875 44.269531 C 20.703125 43.9375 17.839844 43.230469 15.210938 41.632812 C 13.226562 40.421875 11.429688 38.929688 9.886719 37.203125 C 9.183594 36.425781 9.054688 35.71875 9.476562 35.042969 C 9.898438 34.363281 10.710938 34.136719 11.609375 34.453125 C 13.78125 35.714844 16.15625 36.59375 18.628906 37.058594 L 18.964844 37.113281 C 20.308594 37.472656 21.707031 37.609375 23.097656 37.523438 L 23.261719 37.535156 C 25.0625 37.5 26.855469 37.429688 28.605469 36.9375 Z M 28.605469 36.9375 "/>
<path style=" stroke:none;fill-rule:nonzero;fill:rgb(98.039216%,98.431373%,98.823529%);fill-opacity:1;" d="M 31.1875 12.015625 C 32.761719 12.273438 34.542969 12.886719 36.058594 13.394531 C 35.429688 14.265625 34.902344 15.585938 34.078125 16.253906 C 33.070312 17.070312 31.964844 16.660156 31.554688 15.378906 C 31.253906 14.433594 31.1875 13.003906 31.1875 12.015625 Z M 31.1875 12.015625 "/>
<path style=" stroke:none;fill-rule:nonzero;fill:rgb(98.039216%,98.431373%,98.823529%);fill-opacity:1;" d="M 36.253906 13.898438 L 39.574219 15.277344 C 39.109375 16.042969 38.664062 16.828125 38.011719 17.441406 C 37.414062 18.007812 37.050781 17.917969 36.761719 17.125 C 36.382812 16.089844 36.289062 14.996094 36.253906 13.898438 Z M 36.253906 13.898438 "/>
<path style=" stroke:none;fill-rule:nonzero;fill:rgb(98.823529%,99.607843%,99.607843%);fill-opacity:1;" d="M 18.609375 11.203125 C 20.109375 11.078125 21.714844 11.289062 23.199219 11.53125 C 22.976562 12.816406 22.652344 14.648438 22.414062 15.929688 C 22.261719 16.769531 21.039062 17.273438 20.101562 16.867188 C 19.269531 16.507812 18.710938 15.871094 18.664062 14.882812 C 18.617188 13.871094 18.625 12.214844 18.609375 11.203125 Z M 18.609375 11.203125 "/>
<path style=" stroke:none;fill-rule:nonzero;fill:rgb(98.823529%,99.607843%,99.607843%);fill-opacity:1;" d="M 14.609375 11.792969 C 15.6875 11.285156 16.785156 11.074219 17.972656 10.980469 C 17.992188 12.558594 17.996094 15.242188 18.011719 16.824219 C 18.019531 17.695312 17.613281 18.148438 16.785156 18.207031 C 16.0625 18.261719 15.453125 17.9375 14.855469 17.566406 C 14.582031 17.394531 14.617188 17.113281 14.613281 16.851562 C 14.601562 15.59375 14.621094 13.050781 14.609375 11.792969 Z M 14.609375 11.792969 "/>
<path style=" stroke:none;fill-rule:nonzero;fill:rgb(98.039216%,98.431373%,98.823529%);fill-opacity:1;" d="M 27.046875 11.492188 C 28.257812 11.441406 29.46875 11.507812 30.667969 11.6875 C 30.550781 12.878906 30.359375 14.871094 29.953125 16.003906 C 29.757812 16.550781 29.570312 17.132812 28.8125 17.046875 C 28.03125 16.695312 27.027344 16.421875 26.9375 15.535156 C 26.824219 14.445312 26.980469 12.582031 27.046875 11.492188 Z M 27.046875 11.492188 "/>
<path style=" stroke:none;fill-rule:nonzero;fill:rgb(98.039216%,98.431373%,98.823529%);fill-opacity:1;" d="M 23.351562 11.417969 C 24.414062 11.476562 25.476562 11.515625 26.539062 11.574219 C 26.546875 12.875 26.480469 14.882812 26.253906 16.152344 C 26.042969 17.328125 25.476562 17.800781 24.5 17.671875 C 23.757812 17.578125 23.417969 17.097656 23.378906 15.90625 C 23.335938 14.644531 23.359375 12.6875 23.351562 11.417969 Z M 23.351562 11.417969 "/>
<path style=" stroke:none;fill-rule:nonzero;fill:rgb(98.039216%,98.431373%,98.823529%);fill-opacity:1;" d="M 10.292969 14.195312 C 11.496094 13.742188 12.761719 12.878906 14.007812 12.550781 C 13.925781 13.554688 13.808594 15.4375 13.546875 16.40625 C 13.355469 17.121094 12.757812 17.386719 11.683594 17.328125 C 10.992188 17.285156 10.609375 16.921875 10.539062 16.207031 C 10.492188 15.734375 10.316406 14.671875 10.292969 14.195312 Z M 10.292969 14.195312 "/>
<path style=" stroke:none;fill-rule:nonzero;fill:rgb(92.156863%,12.941176%,16.862745%);fill-opacity:1;" d="M 8.992188 14.734375 C 8.765625 14.734375 8.519531 14.777344 8.363281 14.550781 C 8.175781 14.28125 8.324219 14.015625 8.464844 13.8125 C 8.699219 13.464844 14.328125 9.113281 17.117188 7.679688 C 18.269531 7.089844 19.472656 7.078125 20.6875 7.40625 C 21.519531 7.632812 22.378906 7.816406 23.167969 8.167969 C 23.960938 8.519531 24.632812 8.460938 25.414062 8.167969 C 27.351562 7.445312 29.324219 6.832031 31.269531 6.140625 C 32.199219 5.808594 33.058594 5.929688 33.921875 6.359375 C 35.640625 7.21875 36.980469 8.554688 38.128906 10.113281 C 39.1875 11.535156 39.988281 13.113281 40.722656 14.734375 C 41.042969 15.4375 41.835938 16.691406 39.152344 15.277344 L 35.835938 13.898438 L 35.566406 13.777344 C 34.050781 13.273438 32.53125 12.789062 30.953125 12.53125 L 30.570312 12.476562 C 29.394531 12.292969 28.203125 12.21875 27.011719 12.261719 L 26.535156 12.261719 L 23.351562 12.109375 L 23.078125 12.074219 C 21.597656 11.832031 20.109375 11.71875 18.613281 11.84375 L 17.992188 11.871094 C 15.800781 11.875 11.132812 14.734375 8.992188 14.734375 Z M 8.992188 14.734375 "/>
</g>
</svg>
