<svg width="23" height="23" viewBox="0 0 23 23" fill="none" xmlns="http://www.w3.org/2000/svg">
<path d="M9.12734 1.64999C11.1098 1.64999 13.0111 2.43754 14.413 3.83937C15.8148 5.24121 16.6023 7.1425 16.6023 9.12499C16.6023 10.9765 15.9238 12.6785 14.8083 13.9895L15.1188 14.3H16.0273L21.7773 20.05L20.0523 21.775L14.3023 16.025V15.1165L13.9918 14.806C12.6808 15.9215 10.9788 16.6 9.12734 16.6C7.14485 16.6 5.24356 15.8125 3.84172 14.4106C2.43989 13.0088 1.65234 11.1075 1.65234 9.12499C1.65234 7.1425 2.43989 5.24121 3.84172 3.83937C5.24356 2.43754 7.14485 1.64999 9.12734 1.64999V1.64999ZM9.12734 3.94999C6.25234 3.94999 3.95234 6.24999 3.95234 9.12499C3.95234 12 6.25234 14.3 9.12734 14.3C12.0023 14.3 14.3023 12 14.3023 9.12499C14.3023 6.24999 12.0023 3.94999 9.12734 3.94999Z" fill="#979797"/>
</svg>
