<svg width="11" height="7" viewBox="0 0 11 7" fill="none" xmlns="http://www.w3.org/2000/svg">
<path d="M10.5025 6.437C10.5029 6.94962 9.86589 7.19707 9.52122 6.81246H1.68749C0.757029 6.81246 0 6.05543 0 5.12497C0 4.1945 0.757029 3.43747 1.68749 3.43747H5.4492C5.95967 3.43747 6.37498 3.02216 6.37498 2.51169C6.37498 2.00123 5.95967 1.58591 5.4492 1.58591H2.48179C2.13421 1.96949 1.50039 1.72485 1.5 1.21138C1.4992 0.697284 2.13227 0.452457 2.48179 0.835917H5.4492C6.37334 0.835917 7.12498 1.58756 7.12498 2.51169C7.12498 3.43583 6.37334 4.18747 5.4492 4.18747H1.68749C1.17047 4.18747 0.749998 4.60794 0.749998 5.12497C0.749998 5.642 1.17047 6.06246 1.68749 6.06246H9.52099C9.86985 5.67748 10.5018 5.92629 10.5025 6.437Z" fill="white"/>
</svg>
