<svg width="298" height="317" viewBox="0 0 298 317" fill="none" xmlns="http://www.w3.org/2000/svg">
<circle cx="146" cy="179" r="138" fill="#FFF8D8"/>
<g clip-path="url(#clip0)">
<path d="M173.274 127.923C172.875 126.877 170.44 121.248 169.968 119.444C168.806 115.15 167.062 110.712 164.809 106.273L164.337 105.335C164.337 105.335 163.574 103.892 162.266 104C159.069 104.253 147.044 103.495 145.409 104.758C145.191 104.902 144.465 105.552 143.956 106.345C137.489 116.304 108.135 173.136 108.135 173.136L109.297 173.966C109.551 174.147 109.769 174.327 109.987 174.508C110.605 175.013 111.223 175.518 112.058 175.807C112.676 176.023 113.293 176.24 113.911 176.456C116.345 177.322 118.816 178.188 121.431 178.621C127.644 179.667 134.002 180.389 140.141 181.075L140.904 181.147C143.665 181.472 146.39 181.58 149.006 181.508C152.602 181.4 155.908 181.183 159.105 180.822C159.432 180.786 159.796 180.75 160.123 180.714C163.102 180.353 166.299 179.884 169.314 178.946C172.729 177.863 176.072 176.564 179.341 175.301C180.431 174.868 181.521 174.435 182.611 174.038C183.301 173.786 183.919 173.461 184.536 173.1C184.827 172.956 185.118 172.775 185.445 172.631L187.879 171.332C187.879 171.368 178.033 140.986 173.274 127.923Z" fill="#EB1C24"/>
<path d="M191.875 178.152C191.33 176.131 190.676 173.93 188.896 171.693L188.169 170.755L187.043 171.188C185.953 171.621 184.899 172.054 183.81 172.451C181.412 173.389 178.941 174.363 176.544 175.374C170.767 177.863 166.19 179.235 161.685 179.776C155.763 180.497 148.751 181.183 141.812 180.425C135.854 179.776 129.896 179.018 124.12 178.188C118.634 177.394 115.291 176.709 111.295 174.363C110.895 174.111 107.88 172.343 107.88 172.343L105.591 176.204C104.683 177.755 103.811 179.271 102.903 180.786C101.704 182.771 101.486 184.322 103.956 185.982C105.591 187.065 107.044 187.931 108.425 188.616C113.33 191.07 118.634 192.549 123.139 193.668L123.502 193.776C127.28 194.714 131.204 195.725 135.127 196.266C140.795 197.06 146.862 197.204 153.111 196.735C154.455 196.627 155.763 196.519 157.034 196.374C161.43 195.905 184.681 190.854 190.64 182.157C191.62 180.858 192.311 179.812 191.875 178.152Z" fill="#82D14F"/>
<path d="M125.101 161.626C125.682 161.986 125.936 162.492 125.864 163.141C125.755 164.007 125.5 165.847 124.992 166.966C124.556 168.229 123.066 168.518 122.485 167.327C121.649 165.631 123.793 161.084 125.101 161.626Z" fill="#F2F2F2"/>
<path d="M144.392 151.883C144.682 152.388 144.464 157.223 142.938 158.667C142.72 158.847 142.248 158.955 141.994 158.847C141.812 158.775 141.594 158.342 141.63 158.089C141.776 156.429 142.466 153.182 142.829 152.027C143.011 151.233 144.028 150.981 144.392 151.883Z" fill="#F2F2F2"/>
<path d="M172.547 152.28C173.019 152.605 174.872 157.115 174.073 159.064C173.964 159.316 173.564 159.605 173.274 159.641C173.092 159.677 172.693 159.353 172.62 159.136C172.075 157.584 171.312 154.337 171.167 153.146C171.021 152.28 171.821 151.595 172.547 152.28Z" fill="#F2F2F2"/>
<path d="M161.939 125.83C162.411 126.155 164.409 130.594 163.683 132.578C163.574 132.831 163.211 133.119 162.92 133.155C162.738 133.192 162.339 132.903 162.23 132.65C161.612 131.099 160.776 127.923 160.558 126.696C160.45 125.867 161.212 125.181 161.939 125.83Z" fill="#F2F2F2"/>
<path d="M152.566 124.099C152.893 124.568 152.747 131.785 151.367 133.408C151.185 133.625 150.713 133.769 150.459 133.697C150.277 133.661 149.986 133.264 149.986 133.011C149.95 131.352 150.749 125.686 151.004 124.496C151.149 123.63 152.093 123.233 152.566 124.099Z" fill="#F2F2F2"/>
<path d="M136.98 163.827C138.288 164.657 136.217 171.44 135.309 172.09C134.764 172.487 134.038 172.126 133.929 171.44C133.856 171.043 133.892 170.61 133.965 170.25C134.292 168.59 134.619 166.966 135.018 165.306C135.273 164.079 135.745 163.249 136.98 163.827Z" fill="#F2F2F2"/>
<path d="M132.911 143.115C131.858 143.115 131.603 141.888 131.64 141.311C131.785 139.651 132.621 138.171 133.347 136.692C133.965 135.537 135.164 135.285 134.909 137.522C134.764 138.929 133.965 143.079 132.911 143.115Z" fill="#F2F2F2"/>
<path d="M162.521 146.867C161.285 147.589 160.74 146.47 160.486 145.821C159.759 143.945 159.687 141.96 159.578 139.975C159.541 139.47 160.159 138.64 160.886 139.831C161.249 140.372 163.756 146.146 162.521 146.867Z" fill="#F2F2F2"/>
<path d="M165.027 121.212C163.792 121.934 163.247 120.815 162.993 120.166C162.266 118.289 162.193 116.305 162.084 114.32C162.048 113.815 162.666 112.985 163.392 114.176C163.756 114.717 166.262 120.49 165.027 121.212Z" fill="#F2F2F2"/>
<path d="M144.101 142.898C143.447 142.898 142.684 142.321 142.611 141.635C142.393 139.615 142.902 137.702 143.338 135.754C143.447 135.285 143.774 134.527 144.537 135.213C145.699 136.259 145.736 142.61 144.101 142.898Z" fill="#F2F2F2"/>
<path d="M172.293 144.702C171.712 144.955 170.767 144.738 170.404 144.125C169.423 142.357 169.132 140.372 168.769 138.46C168.66 137.991 168.696 137.161 169.641 137.486C171.13 137.991 173.71 143.8 172.293 144.702Z" fill="#F2F2F2"/>
<path d="M151.004 171.801C149.696 172.09 149.296 171.152 149.151 170.466C148.679 168.518 148.933 166.533 149.115 164.549C149.26 163.791 149.769 163.213 150.568 164.368C151.222 165.018 152.893 171.404 151.004 171.801Z" fill="#F2F2F2"/>
<path d="M135.491 149.393C136.944 149.574 135.382 154.697 134.074 156.141C133.71 156.538 133.275 156.826 132.766 156.538C132.221 156.213 131.967 155.636 132.112 155.022C132.439 153.759 132.802 152.496 133.238 151.27C133.674 150.079 134.11 149.285 135.491 149.393Z" fill="#F2F2F2"/>
<path d="M143.593 120.021C144.61 120.201 143.811 123.918 142.866 125.181C142.612 125.506 142.248 125.83 141.812 125.614C141.34 125.397 141.086 124.964 141.159 124.423C141.34 123.377 141.522 122.294 141.776 121.284C142.03 120.31 142.43 120.021 143.593 120.021Z" fill="#F2F2F2"/>
<path d="M152.784 142.79C154.019 142.609 154.564 147.156 153.947 148.96C153.801 149.429 153.511 149.898 152.929 149.862C152.312 149.79 151.84 149.393 151.731 148.744C151.513 147.481 151.295 146.218 151.222 144.919C151.113 143.692 151.476 143.223 152.784 142.79Z" fill="#F2F2F2"/>
<path d="M153.91 112.299C155 112.119 155.472 116.124 154.927 117.748C154.782 118.181 154.528 118.578 154.019 118.542C153.474 118.47 153.074 118.109 152.965 117.568C152.784 116.449 152.602 115.33 152.493 114.212C152.42 113.093 152.747 112.66 153.91 112.299Z" fill="#F2F2F2"/>
<path d="M157.616 154.084C158.851 153.904 159.396 158.45 158.778 160.255C158.633 160.724 158.342 161.193 157.761 161.157C157.143 161.085 156.671 160.688 156.562 160.038C156.344 158.775 156.126 157.512 156.053 156.213C155.944 154.986 156.308 154.517 157.616 154.084Z" fill="#F2F2F2"/>
<path d="M166.299 164.332C167.316 164.151 167.825 167.94 167.352 169.456C167.243 169.853 166.989 170.25 166.517 170.214C166.008 170.177 165.609 169.817 165.5 169.311C165.318 168.265 165.136 167.219 165.027 166.136C164.918 165.09 165.209 164.693 166.299 164.332Z" fill="#F2F2F2"/>
<path d="M181.303 241.515C183.701 241.515 185.735 241.623 187.77 241.479C189.296 241.371 189.732 241.587 189.804 240.974C189.913 236.752 189.841 231.051 189.768 226.829C189.659 222.391 189.187 219.179 188.932 214.741C188.787 211.854 187.261 209.509 184.609 207.38C182.793 205.937 164.737 195.364 163.029 194.57C158.633 196.122 153.838 196.627 151.367 196.844C154.564 198.612 175.418 210.916 177.67 212.757C181.194 215.715 180.976 217.52 181.194 221.85C181.412 225.638 181.666 230.943 181.339 234.731C181.121 236.969 181.303 239.206 181.303 241.515Z" fill="#009145"/>
<path d="M147.77 197.204C147.77 197.204 141.849 197.421 138.906 196.807C137.816 198.972 129.061 213.261 127.862 215.318C124.047 221.055 119.687 218.782 117.907 217.447C114.856 214.885 105.555 205.684 104.465 205.395C102.976 206.622 99.4517 209.364 100.723 210.483C102.685 212.215 111.913 222.174 114.274 223.942C116.89 225.891 119.397 227.334 122.558 227.334C125.718 227.334 128.697 225.133 130.514 223.581C133.965 220.658 136.072 216.617 138.397 212.792C139.814 210.519 147.77 197.204 147.77 197.204Z" fill="#009145"/>
<path d="M181.375 253.531C185.444 254.144 189.368 254.144 193.364 253.711C197.142 253.314 200.957 252.989 204.772 252.737C207.279 252.592 213.273 252.34 213.782 252.196C214.072 250.933 214.109 249.85 213.346 249.128C210.585 249.634 192.529 250.788 186.026 250.86C184.681 250.86 183.301 250.788 181.957 250.752C181.811 250.752 181.702 250.824 181.448 250.933C181.448 251.438 181.412 252.773 181.375 253.531Z" fill="#F0F0F2"/>
<path d="M82.5219 224.808C86.9905 226.54 96.3273 213.261 96.7269 212.648C97.5625 211.313 98.3981 211.385 100.033 211.385C100.941 211.385 101.668 211.601 102.213 210.916C103.085 209.761 111.586 211.349 110.859 210.447C110.714 210.266 99.597 198.684 97.6715 196.482C92.3673 205.864 84.7744 213.009 78.78 221.416C79.4339 223.04 80.7055 224.014 82.5219 224.808Z" fill="#595759"/>
<path d="M181.121 229.138C181.121 231.411 180.867 250.788 181.739 251.077C182.356 251.257 182.393 251.077 184.79 251.113C186.643 251.149 188.496 251.113 190.349 251.041C195.58 250.788 200.848 250.572 206.08 250.175C207.823 250.031 213.019 249.922 213.673 249.562C213.673 247.036 212.546 245.556 211.275 244.835C209.204 242.886 195.907 244.005 192.783 241.623C191.511 241.082 191.62 235.164 189.913 234.082C189.332 233.829 184.645 229.138 181.121 229.138Z" fill="#595759"/>
<path d="M96.5816 195.508C94.8378 195.725 85.7916 208.571 83.8661 211.241C82.5946 213.009 81.2141 214.705 79.8699 216.437C79.6156 216.762 77.1451 219.648 76.9635 220.045C77.6537 220.911 77.8354 221.525 78.7436 221.38C79.8699 219.251 84.0478 215.282 85.3557 213.478C88.698 208.968 90.6962 206.37 94.1475 201.967C94.8741 201.029 96.7996 197.818 97.5625 196.916C97.6352 196.843 97.6352 196.699 97.7078 196.483C97.4535 196.266 97.0902 195.941 96.5816 195.508Z" fill="#F0F0F2"/>
<path d="M193.11 246.531C192.965 246.495 192.856 246.459 192.747 246.35C192.384 245.953 192.638 245.376 192.747 245.196C193.365 244.005 194.2 242.345 194.055 242.237C193.946 242.129 193.8 242.237 193.8 242.237C193.655 242.309 190.131 244.33 189.368 244.691C188.823 244.943 188.315 245.124 187.988 244.835C187.661 244.546 187.842 244.113 187.879 243.969C188.024 243.536 191.403 236.139 191.403 236.139C191.621 236.896 191.548 238.881 191.548 238.881C191.439 239.278 189.15 242.814 188.823 243.933C188.86 243.897 188.932 243.897 188.969 243.861C189.659 243.536 193.038 241.623 193.437 241.407C193.873 241.046 194.491 240.793 194.963 241.19C195.217 241.407 195.617 241.732 193.51 245.593C193.583 245.557 193.655 245.52 193.8 245.484C194.709 245.051 196.925 243.392 198.378 242.778L199.577 243.031C199.395 243.139 195.69 245.593 194.2 246.278C193.982 246.386 193.51 246.603 193.11 246.531Z" fill="#F0F0F0"/>
<path d="M92.6944 209.942C92.7671 209.834 92.8761 209.725 93.0214 209.653C93.53 209.437 94.0023 209.906 94.1113 210.086C94.9832 211.097 96.2911 212.432 96.4364 212.36C96.5817 212.287 96.5091 212.143 96.5091 212.143C96.4727 211.963 95.8551 207.993 95.7825 207.127C95.7461 206.514 95.7461 206.009 96.1458 205.792C96.5091 205.612 96.8724 205.901 96.9813 206.009C97.3446 206.297 102.213 210.916 102.213 210.916C101.704 211.71 100.433 211.385 100.433 211.385C100.106 211.169 97.599 207.56 96.6544 206.875C96.6544 206.911 96.6544 206.983 96.6544 207.055C96.6907 207.813 97.3083 211.638 97.381 212.071C97.5626 212.576 97.5626 213.262 97.0177 213.55C96.727 213.695 96.2911 213.947 93.421 210.628C93.421 210.7 93.421 210.808 93.421 210.916C93.4937 211.927 94.2566 214.561 94.3293 216.112L93.6753 217.123C93.639 216.942 92.6581 212.612 92.5491 210.952C92.5128 210.772 92.4764 210.267 92.6944 209.942Z" fill="#F0F0F0"/>
</g>
<path d="M244.336 284.7C239.536 289.5 232.536 295 226.236 298.7C225.736 299 225.236 299.3 224.736 299.6C219.036 302.8 212.436 306.2 210.636 304.4C207.436 301.2 216.936 286.3 225.136 276.4C225.536 275.9 225.836 275.5 226.236 275.1C227.636 273.5 228.936 272 230.236 270.7C239.936 261 243.436 263.7 247.336 267.6C250.836 271.1 253.436 274.5 246.436 282.4C246.036 282.8 245.636 283.2 245.236 283.7C245.036 284.1 244.636 284.4 244.336 284.7Z" fill="#FF7B65"/>
<path d="M257.936 266.6C256.436 265.7 254.736 265.3 253.136 265.3C253.936 263.9 254.436 262.2 254.436 260.5C252.736 260.5 251.136 260.9 249.736 261.7C249.736 260.1 249.336 258.5 248.436 257C245.036 258.9 243.136 262.6 243.436 266.3C243.536 267.5 244.636 270.2 244.736 270.4C244.836 270.5 247.536 271.6 248.836 271.7C252.336 271.9 256.036 270.1 257.936 266.6Z" fill="#22A45D"/>
<path d="M245.336 283.7L238.936 277.3C238.636 277 238.636 276.4 238.936 276.1C239.236 275.8 239.836 275.8 240.136 276.1L246.436 282.4C246.136 282.9 245.736 283.3 245.336 283.7Z" fill="#F2F2F2"/>
<path d="M226.236 298.7C225.736 299 225.236 299.3 224.736 299.6L220.736 295.6C220.436 295.3 220.436 294.7 220.736 294.4C221.036 294.1 221.636 294.1 221.936 294.4L226.236 298.7Z" fill="#F2F2F2"/>
<path d="M234.536 284.7C234.236 285 233.636 285 233.336 284.7L225.136 276.5C225.536 276 225.836 275.6 226.236 275.2L234.636 283.6C234.936 283.8 234.936 284.3 234.536 284.7Z" fill="#F2F2F2"/>
<path d="M47.0068 79.7453C55.4068 71.3453 55.4068 57.8453 47.0068 49.4453L16.7068 79.7453C25.1068 88.1453 38.7068 88.1453 47.0068 79.7453Z" fill="#FF7058"/>
<path d="M50.3068 46.2451C60.5068 56.3451 60.5068 72.8451 50.3068 83.0451C40.1068 93.2451 23.6068 93.2451 13.5068 83.0451L12.0068 84.5451C23.0068 95.5451 40.8068 95.5451 51.8068 84.5451C62.8068 73.5451 62.8068 55.7451 51.8068 44.7451L50.3068 46.2451Z" fill="#22A45D"/>
<rect x="13.4755" y="83.0776" width="4.59996" height="0.1" transform="rotate(-45 13.4755 83.0776)" fill="#F2F2F2"/>
<rect x="47.0288" y="49.459" width="4.59996" height="0.1" transform="rotate(-45 47.0288 49.459)" fill="#F2F2F2"/>
<path d="M50.3068 83.0451C60.5068 72.8451 60.5068 56.3451 50.3068 46.2451L47.0068 49.5451C55.4068 57.9451 55.4068 71.4451 47.0068 79.8451C38.6068 88.2451 25.1068 88.2451 16.7068 79.8451L13.5068 83.0451C23.6068 93.2451 40.1068 93.2451 50.3068 83.0451Z" fill="#F2F2F2"/>
<path d="M44.1706 59.8658C44.7564 59.28 44.7564 58.3303 44.1706 57.7445C43.5848 57.1587 42.6351 57.1587 42.0493 57.7445C41.4635 58.3303 41.4635 59.28 42.0493 59.8658C42.6351 60.4516 43.5848 60.4516 44.1706 59.8658Z" fill="white"/>
<path d="M35.6817 68.3707C36.2675 67.7849 36.2675 66.8352 35.6817 66.2494C35.0959 65.6636 34.1462 65.6636 33.5604 66.2494C32.9746 66.8352 32.9746 67.7849 33.5604 68.3707C34.1462 68.9565 35.0959 68.9565 35.6817 68.3707Z" fill="white"/>
<path d="M27.1928 76.8751C27.7786 76.2893 27.7786 75.3396 27.1928 74.7538C26.607 74.168 25.6573 74.168 25.0715 74.7538C24.4857 75.3396 24.4857 76.2893 25.0715 76.8751C25.6573 77.4609 26.607 77.4609 27.1928 76.8751Z" fill="white"/>
<path d="M43.7672 67.9898C44.353 67.4041 44.353 66.4543 43.7672 65.8685C43.1814 65.2828 42.2317 65.2828 41.6459 65.8685C41.0601 66.4543 41.0601 67.4041 41.6459 67.9898C42.2317 68.5756 43.1814 68.5756 43.7672 67.9898Z" fill="white"/>
<path d="M35.2783 76.4947C35.864 75.909 35.864 74.9592 35.2783 74.3734C34.6925 73.7877 33.7427 73.7877 33.157 74.3734C32.5712 74.9592 32.5712 75.909 33.157 76.4947C33.7427 77.0805 34.6925 77.0805 35.2783 76.4947Z" fill="white"/>
<path d="M43.3637 76.1139C43.9494 75.5281 43.9494 74.5784 43.3637 73.9926C42.7779 73.4068 41.8281 73.4068 41.2424 73.9926C40.6566 74.5784 40.6566 75.5281 41.2424 76.1139C41.8281 76.6997 42.7779 76.6997 43.3637 76.1139Z" fill="white"/>
<path d="M204.175 71.411C204.475 70.611 205.775 68.911 206.575 69.011C210.875 69.211 224.675 69.411 230.675 62.811C230.675 62.811 234.475 59.711 235.675 52.111C235.675 52.111 235.075 45.811 234.575 43.511C234.475 43.011 234.575 42.511 234.875 42.111C235.275 41.511 236.075 41.311 236.775 41.511L238.175 41.811C239.175 42.111 239.775 42.911 239.875 43.911L240.075 49.611C240.075 49.611 248.375 53.211 245.175 65.211C245.175 65.211 240.475 78.711 221.575 80.811C221.575 80.811 212.475 82.511 204.275 74.411C203.875 73.911 203.975 72.111 204.175 71.411Z" fill="#22A45D"/>
<path d="M235.575 83.311C235.575 83.311 227.675 88.311 217.075 83.511C215.875 83.011 215.875 80.511 215.875 80.511C219.175 81.111 221.475 80.711 221.475 80.711C240.475 78.711 245.175 65.211 245.175 65.211C248.375 53.211 240.075 49.611 240.075 49.611C240.075 49.611 238.975 48.411 236.375 47.511C235.875 46.511 235.275 45.511 234.875 44.711C234.775 44.211 234.775 43.811 234.675 43.511C234.575 43.011 234.675 42.511 234.975 42.111C235.375 41.511 236.175 41.311 236.875 41.511L238.175 41.811C238.875 42.011 239.375 42.511 239.675 43.111C239.675 43.111 239.675 43.211 239.775 43.211L241.675 47.611C241.675 47.611 250.675 48.011 251.975 60.311C251.975 60.311 252.475 74.511 235.575 83.311Z" fill="#30AC68"/>
<path d="M239.675 43.1109C239.475 42.5109 238.875 42.0109 238.175 41.8109L236.875 41.4109C236.175 41.2109 235.475 41.5109 234.975 42.0109C234.675 42.4109 234.575 42.9109 234.675 43.4109C234.775 43.7109 234.775 44.2109 234.875 44.6109C234.675 44.4109 234.475 44.1109 234.375 43.8109C234.075 43.4109 234.075 42.9109 234.175 42.4109C234.375 41.7109 234.975 41.2109 235.675 41.1109L237.075 41.0109C238.075 40.9109 238.975 41.5109 239.375 42.4109L239.675 43.1109Z" fill="#136D3C"/>
<path d="M240.075 49.6107C240.075 49.6107 238.975 48.4107 236.375 47.5107C237.475 49.5107 238.375 51.5107 238.375 51.5107C239.975 59.0107 237.575 63.3107 237.575 63.3107C234.275 71.6107 221.375 76.4107 217.275 77.7107C216.575 77.9107 216.075 78.6107 215.975 79.4107V80.6107C219.275 81.2107 221.575 80.8107 221.575 80.8107C240.475 78.7107 245.175 65.2107 245.175 65.2107C248.375 53.2107 240.075 49.6107 240.075 49.6107Z" fill="#5DBB88"/>
<rect x="32.0822" y="256.514" width="4.79995" height="12.2999" transform="rotate(-45 32.0822 256.514)" fill="#EEF8F2"/>
<path d="M37.7067 255.288L35.5067 253.088L32.1067 256.488L34.3067 258.688C35.1067 258.388 35.8067 257.888 36.4067 257.388C37.0067 256.788 37.4067 256.088 37.7067 255.288Z" fill="#DBEDE2"/>
<path d="M35.2067 256.189C31.1067 260.289 14.1067 255.389 5.70666 246.989C-2.69334 238.589 -0.793341 231.489 4.80666 225.789C8.60666 222.089 13.0067 219.989 17.9067 221.489C18.9067 221.789 20.0067 222.189 21.0067 222.789C22.6067 223.689 24.3067 224.989 26.0067 226.689C26.8067 227.489 27.7067 228.389 28.4067 229.489C28.9067 230.189 29.5067 230.889 29.9067 231.689C31.3067 233.789 32.5067 236.089 33.4067 238.389C33.7067 239.089 34.0067 239.689 34.2067 240.389C35.2067 242.989 35.9067 245.489 36.2067 247.789C36.3067 248.489 36.4067 249.189 36.4067 249.889C36.8067 252.589 36.3067 254.989 35.2067 256.189Z" fill="#FF7B65"/>
<path d="M43.6067 264.589C44.8067 264.989 46.1067 264.689 47.0067 263.789C48.3067 262.489 48.3067 260.289 47.0067 258.989C45.7067 257.689 43.5067 257.689 42.2067 258.989C41.3067 259.889 41.0067 261.289 41.4067 262.389C40.2067 261.989 38.9067 262.289 38.0067 263.189C36.7067 264.489 36.7067 266.689 38.0067 267.989C39.3067 269.289 41.5067 269.289 42.8067 267.989C43.7067 267.089 44.0067 265.689 43.6067 264.589Z" fill="#EEF8F2"/>
<path d="M36.6067 249.789C35.2067 250.289 33.9067 251.089 32.7067 252.289C32.3067 252.689 31.6067 252.689 31.2067 252.289C30.8067 251.889 30.8067 251.189 31.2067 250.789C32.7067 249.289 34.4067 248.289 36.3067 247.689C36.4067 248.389 36.5067 249.089 36.6067 249.789Z" fill="#E76A56"/>
<path d="M34.3067 240.289C31.6067 240.289 28.8067 241.289 26.8067 243.389C26.4067 243.789 25.7067 243.789 25.3067 243.389C24.9067 242.989 24.9067 242.389 25.3067 241.989C27.6067 239.689 30.5067 238.489 33.5067 238.289C33.8067 238.989 34.1067 239.589 34.3067 240.289Z" fill="#E76A56"/>
<path d="M30.0067 231.589C26.8067 231.089 23.4067 232.089 20.9067 234.589C20.5067 234.989 19.8067 234.989 19.4067 234.589C19.0067 234.189 19.0067 233.489 19.4067 233.089C21.9067 230.589 25.2067 229.389 28.4067 229.389C29.0067 230.089 29.5067 230.889 30.0067 231.589Z" fill="#E76A56"/>
<path d="M21.0067 222.789C18.8067 223.089 16.6067 224.089 14.9067 225.789C14.5067 226.189 13.9067 226.189 13.5067 225.789C13.1067 225.389 13.1067 224.789 13.5067 224.389C14.8067 223.089 16.3067 222.089 18.0067 221.489C18.9067 221.689 20.0067 222.189 21.0067 222.789Z" fill="#E76A56"/>
<path d="M283.29 114.681L287.821 110.151C293.71 116.192 297.335 124.347 297.486 133.408H264.563L283.29 114.681Z" fill="#FF7B65"/>
<path d="M264.563 133.408L283.29 114.682C287.972 119.514 290.841 126.159 290.992 133.408H264.563Z" fill="#FFD15C"/>
<path d="M288.727 131.143C289.784 130.236 289.935 128.575 289.029 127.518C288.123 126.461 286.461 126.31 285.404 127.216C284.951 127.518 285.102 128.273 285.555 129.028L283.592 130.69L284.951 132.351L286.914 130.69C287.67 131.143 288.425 131.445 288.727 131.143Z" fill="#22A45D"/>
<path fill-rule="evenodd" clip-rule="evenodd" d="M272.114 129.784C272.114 128.424 273.172 127.367 274.531 127.367C275.89 127.367 276.947 128.424 276.947 129.784C276.947 131.143 275.89 132.2 274.531 132.2C273.172 132.2 272.114 131.143 272.114 129.784ZM273.021 129.935C273.021 130.841 273.625 131.445 274.531 131.445C275.286 131.445 276.041 130.69 276.041 129.935C276.041 129.179 275.437 128.424 274.531 128.424C273.776 128.424 273.021 129.028 273.021 129.935Z" fill="#FF7B65"/>
<path fill-rule="evenodd" clip-rule="evenodd" d="M279.666 123.138C279.666 121.779 280.723 120.722 282.082 120.722C283.441 120.722 284.498 121.779 284.498 123.138C284.498 124.498 283.441 125.555 282.082 125.555C280.723 125.555 279.666 124.498 279.666 123.138ZM280.572 123.29C280.572 124.045 281.176 124.8 282.082 124.8C282.988 124.8 283.592 124.045 283.592 123.29C283.592 122.383 282.988 121.779 282.082 121.779C281.176 121.779 280.572 122.383 280.572 123.29Z" fill="#E76A56"/>
<path d="M145.233 14.1959L126.507 32.9224V0C135.568 0.15102 143.723 3.77551 149.764 9.66531L145.233 14.1959Z" fill="#FF7B65"/>
<path d="M145.233 14.1957L126.507 32.9222V6.49365C133.756 6.64467 140.25 9.51406 145.233 14.1957Z" fill="#FFD15C"/>
<path fill-rule="evenodd" clip-rule="evenodd" d="M136.474 14.347C136.474 12.9878 137.531 11.9307 138.891 11.9307C140.25 11.9307 141.307 12.9878 141.307 14.347C141.307 15.7062 140.25 16.7633 138.891 16.7633C137.531 16.7633 136.474 15.7062 136.474 14.347ZM137.38 14.347C137.38 15.2531 137.984 15.8572 138.891 15.8572C139.797 15.8572 140.401 15.2531 140.401 14.347C140.401 13.5919 139.797 12.8368 138.891 12.8368C137.984 12.8368 137.38 13.4409 137.38 14.347Z" fill="#FF7058"/>
<path d="M131.188 24.1631C132.773 24.1631 134.058 22.8784 134.058 21.2937C134.058 19.709 132.773 18.4243 131.188 18.4243C129.604 18.4243 128.319 19.709 128.319 21.2937C128.319 22.8784 129.604 24.1631 131.188 24.1631Z" fill="#22A45D"/>
<path d="M133.303 10.2694C133.152 10.7224 132.699 11.0245 132.246 10.8735C130.735 10.4204 129.074 11.3265 128.772 12.8367C128.621 13.2898 128.168 13.5918 127.715 13.4408C127.262 13.2898 126.96 12.8367 127.111 12.3837C127.866 9.96733 130.282 8.60815 132.699 9.21223C133.152 9.36325 133.454 9.81631 133.303 10.2694Z" fill="#5DBB88"/>
<path d="M240.895 250.087C241.801 249.181 241.801 247.671 240.895 246.765C239.988 245.858 238.478 245.858 237.572 246.765C237.27 247.067 237.421 247.671 237.874 248.426L236.213 250.087L237.723 251.446L239.384 249.785C239.988 250.238 240.592 250.389 240.895 250.087Z" fill="#00BA89"/>
<path fill-rule="evenodd" clip-rule="evenodd" d="M112 85.4163C112 84.0571 113.057 83 114.416 83C115.776 83 116.833 84.0571 116.833 85.4163C116.833 86.7755 115.776 87.8327 114.416 87.8327C113.057 87.8327 112 86.7755 112 85.4163ZM112.906 85.4163C112.906 86.3224 113.51 86.9265 114.416 86.9265C115.171 86.9265 115.927 86.3224 115.927 85.4163C115.927 84.5102 115.322 83.9061 114.416 83.9061C113.51 83.9061 112.906 84.5102 112.906 85.4163Z" fill="#EB212A"/>
<path fill-rule="evenodd" clip-rule="evenodd" d="M51 303.265C51 302.057 52.0571 301 53.2653 301C54.4735 301 55.3796 302.057 55.5306 303.265C55.5306 304.473 54.4735 305.531 53.2653 305.531C52.0571 305.531 51 304.473 51 303.265ZM51.9061 303.265C51.9061 304.02 52.5102 304.624 53.2653 304.624C54.0204 304.624 54.6245 304.02 54.6245 303.265C54.6245 302.51 54.0204 301.906 53.2653 301.906C52.5102 301.906 51.9061 302.51 51.9061 303.265Z" fill="#EB212A"/>
<path d="M63.8694 261.739C65.4541 261.739 66.7388 260.454 66.7388 258.869C66.7388 257.285 65.4541 256 63.8694 256C62.2847 256 61 257.285 61 258.869C61 260.454 62.2847 261.739 63.8694 261.739Z" fill="#FDD213"/>
<path d="M34.8694 117.739C36.4541 117.739 37.7388 116.454 37.7388 114.869C37.7388 113.285 36.4541 112 34.8694 112C33.2847 112 32 113.285 32 114.869C32 116.454 33.2847 117.739 34.8694 117.739Z" fill="#FDD213"/>
<path d="M142.927 102.89C142.473 102.89 142.171 102.437 142.171 101.984C142.473 100.473 141.416 98.9633 139.755 98.6612C139.302 98.6612 139 98.2082 139 97.7551C139 97.302 139.453 97 139.906 97C142.322 97.4531 143.984 99.7184 143.682 102.135C143.833 102.739 143.38 103.041 142.927 102.89Z" fill="#FDD213"/>
<path d="M187.114 259.229C188.282 259.229 189.229 258.282 189.229 257.114C189.229 255.947 188.282 255 187.114 255C185.947 255 185 255.947 185 257.114C185 258.282 185.947 259.229 187.114 259.229Z" fill="#FDD213"/>
<path d="M230.021 235.74C228.662 235.589 227.756 234.381 228.058 233.021C228.209 231.662 229.417 230.756 230.777 231.058C231.23 231.058 231.381 231.813 231.532 232.568L233.797 232.87L233.495 234.834L231.079 234.532C230.928 235.287 230.475 235.891 230.021 235.74Z" fill="#00BA89"/>
<path d="M87.0204 115.041C88.6885 115.041 90.0408 113.689 90.0408 112.02C90.0408 110.352 88.6885 109 87.0204 109C85.3523 109 84 110.352 84 112.02C84 113.689 85.3523 115.041 87.0204 115.041Z" fill="#FDD213"/>
<defs>
<clipPath id="clip0">
<rect width="137" height="150" fill="white" transform="translate(77 104)"/>
</clipPath>
</defs>
</svg>
