<svg width="287" height="290" viewBox="0 0 287 290" fill="none" xmlns="http://www.w3.org/2000/svg">
<g clip-path="url(#clip0)">
<path d="M116.36 146.367C116.36 146.367 116.721 155.036 116 158.247C115.279 161.458 116.801 165.953 120.725 167.117C124.689 168.241 134.779 169.204 139.464 169.686C144.149 170.208 167.853 170.609 173.299 169.806C178.745 169.004 196.843 169.044 196.843 169.044C196.843 169.044 206.774 169.004 206.894 161.659C207.014 154.354 206.413 151.344 206.013 147.571L205.613 143.798L118.563 144.601L116.36 146.367Z" fill="#FDB51B"/>
<path d="M204.931 132.118C204.931 132.118 209.056 134.607 210.657 138.42C212.259 142.233 208.775 145.925 205.092 146.527C201.408 147.129 190.036 147.771 190.036 147.771C190.036 147.771 168.534 148.414 155.12 148.775C141.706 149.136 120.404 147.169 120.404 147.169C120.404 147.169 112.556 145.845 111.715 140.145C110.874 134.446 115.199 133.122 115.199 133.122C115.199 133.122 134.779 130.111 143.068 129.79C151.436 129.469 195.161 129.67 204.931 132.118Z" fill="#AF632B"/>
<path d="M115.079 115.783C115.079 115.783 105.029 123.489 114.559 132.199C114.559 132.199 116.24 133.804 120.965 133.242C120.965 133.242 123.328 132.841 125.57 133.684C127.772 134.526 133.138 133.443 133.138 133.443C133.138 133.443 141.546 129.509 143.388 138.62C143.388 138.62 143.949 140.186 143.268 143.035C142.588 145.885 145.711 146.487 145.711 146.487C145.711 146.487 147.633 147.25 148.233 144.32C148.834 141.39 147.513 138.54 147.513 138.54C147.513 138.54 145.951 136.172 148.674 134.848C151.357 133.523 154.4 133.965 156.642 135.409C158.844 136.854 164.33 138.54 169.856 134.687C175.381 130.834 181.308 134.526 181.308 134.526C181.308 134.526 182.909 135.931 182.989 139.503C183.069 143.075 186.393 142.152 186.393 142.152C186.393 142.152 188.235 142.152 188.075 137.336C187.914 132.52 193.6 136.935 193.6 136.935C193.6 136.935 196.083 138.861 195.562 142.514C195.042 146.126 193 152.467 193 152.467C193 152.467 191.078 158.408 196.163 158.929C201.248 159.451 199.566 148.253 199.566 148.253C199.566 148.253 197.925 141.952 198.926 136.413C199.927 130.874 205.933 131.556 205.933 131.556C205.933 131.556 210.338 131.275 209.096 125.456C207.855 119.636 200.968 116.947 200.968 116.947L121.085 113.776L115.079 115.783Z" fill="#F8EB2D"/>
<path d="M113.797 113.134C113.797 113.134 115.119 87.4463 143.308 83.9946C171.497 80.5428 198.044 99.6077 198.044 99.6077C198.044 99.6077 206.894 105.347 208.856 107.314C210.778 109.281 208.735 110.605 208.735 110.605C208.735 110.605 208.455 111.689 209.496 114.257C212.139 120.719 202.169 118.994 202.169 118.994C202.169 118.994 176.422 114.94 160.125 116.104C143.828 117.268 129.494 119.234 120.805 117.83C113.717 116.666 113.797 113.134 113.797 113.134Z" fill="#FDB51B"/>
<path d="M123.087 101.133C124.208 102.337 125.369 102.297 126.29 102.337C128.292 102.417 129.494 101.053 129.494 101.053L129.053 100.812C128.693 100.611 126.731 100.29 126.05 100.29C125.169 100.29 123.127 100.812 123.127 100.812L123.087 101.133Z" fill="white"/>
<path d="M194.481 111.127C195.602 112.331 196.763 112.291 197.684 112.331C199.686 112.411 200.887 111.047 200.887 111.047L200.447 110.806C200.087 110.605 198.125 110.284 197.444 110.284C196.563 110.284 194.521 110.806 194.521 110.806L194.481 111.127Z" fill="white"/>
<path d="M142.907 90.1754C144.869 92.9448 148.233 91.8611 149.835 90.6169V90.5366C149.835 90.5366 147.592 89.0114 145.75 89.3325C143.868 89.6937 142.907 90.1754 142.907 90.1754Z" fill="white"/>
<path d="M179.305 109.12C180.426 110.043 181.988 110.725 183.269 110.806C184.671 110.926 186.513 110.404 187.794 109.682V109.602C187.794 109.602 185.071 107.715 183.43 107.715C181.788 107.675 179.305 109 179.305 109V109.12Z" fill="white"/>
<path d="M170.416 96.6776C170.416 96.6776 168.173 95.5137 166.452 96.1157C164.73 96.7178 163.729 98.2831 163.729 98.2831C163.729 98.2831 164.61 99.6076 167.413 98.8049C170.216 98.0021 170.416 96.6776 170.416 96.6776Z" fill="white"/>
<path d="M150.555 100.571C151.797 101.173 153.719 101.012 154.8 100.732C156.041 100.37 156.802 99.4873 157.883 98.2431L157.843 98.1628C157.843 98.1628 155.961 97.039 153.638 97.8818C151.316 98.7648 150.515 100.451 150.515 100.451L150.555 100.571Z" fill="white"/>
<path d="M134.899 112.532C137.582 112.692 138.663 113.254 140.825 112.01C140.945 111.93 141.106 111.809 141.186 111.689C141.546 111.127 141.306 110.364 140.665 110.164C139.744 109.802 138.303 109.642 136.661 110.766C136.621 110.806 136.541 110.846 136.501 110.886L134.819 112.492L134.899 112.532Z" fill="white"/>
<path d="M132.136 93.6677C133.178 95.3133 134.259 96.3167 137.502 96.3167L137.542 96.2765C137.542 96.2765 137.062 93.9085 134.058 93.5874H132.177L132.136 93.6677Z" fill="white"/>
<path d="M164.209 90.0551C159.805 88.0884 158.323 88.9313 155.921 91.6204L155.961 91.7007C155.961 91.7007 159.004 93.3062 162.528 91.0986L164.249 90.1755L164.209 90.0551Z" fill="white"/>
<path d="M176.462 95.2731C177.103 96.7181 178.144 97.9623 179.225 98.6847C180.346 99.4072 181.788 99.7684 183.469 99.8487L183.509 99.7684C183.509 99.7684 182.869 97.5208 180.787 96.1963C179.986 95.7146 176.462 95.1929 176.462 95.1929V95.2731Z" fill="white"/>
<path d="M159.885 106.551C157.923 106.39 156.482 106.35 155.08 106.872C153.999 107.314 152.918 107.956 151.957 109.24L151.997 109.32C151.997 109.32 155.24 110.404 156.962 109.441C158.684 108.478 159.965 106.671 159.965 106.671L159.885 106.551Z" fill="white"/>
<path d="M138.703 101.614C140.064 104.063 142.787 104.143 144.709 102.698V102.618C144.709 102.618 143.188 99.5272 140.064 100.972L138.703 101.614Z" fill="white"/>
<path d="M188.435 103.621C189.796 106.069 192.519 106.15 194.441 104.705V104.625C194.441 104.625 192.92 101.534 189.796 102.979L188.435 103.621Z" fill="white"/>
<path d="M168.975 104.625C169.215 107.394 171.657 108.638 174.02 108.116L174.06 108.076C174.06 108.076 173.98 104.625 170.536 104.625H168.975Z" fill="white"/>
<path d="M124.889 109.602C126.851 111.608 129.494 110.966 130.975 109.08V109C130.975 109 128.733 106.431 126.09 108.598L124.889 109.602Z" fill="white"/>
<path d="M223.671 250.039C223.671 250.039 223.952 234.707 238.046 235.59C238.046 235.59 247.896 236.192 247.976 252.889C247.976 252.889 258.147 254.093 263.152 253.932C268.157 253.772 270.4 253.692 270.4 253.692C270.4 253.692 271.361 231.777 270.64 223.308C270.64 223.308 270.6 221.623 268.277 220.94C265.995 220.258 246.495 216.164 246.495 216.164C246.495 216.164 245.254 216.646 243.292 211.388C241.289 206.13 233.922 183.573 233.081 181.326C232.24 179.078 229.878 176.268 225.633 175.626C221.389 174.984 149.635 174.904 135.5 174.743C121.406 174.583 94.0173 175.787 91.8951 176.148C89.7729 176.509 89.9331 180.603 89.9331 180.603C89.9331 180.603 90.8541 219.295 91.4547 228.566C92.0553 237.798 92.0153 250.28 92.0153 250.28C92.0153 250.28 92.0953 252.849 96.1796 253.049C100.264 253.21 122.367 251.605 122.367 251.605C122.367 251.605 123.888 251.404 123.768 248.353C123.688 245.303 124.369 233.463 134.059 233.583C143.749 233.744 145.591 244.139 145.751 248.394C145.751 248.394 145.951 249.919 148.394 250.28C150.916 250.722 214.021 250.962 223.671 250.039Z" fill="#FDB51B"/>
<path d="M203.13 185.098C203.13 185.098 203.49 224.713 203.85 236.714L203.971 240.366C203.971 240.366 204.731 245.062 202.009 245.143C199.286 245.223 188.394 246.026 184.15 245.705C179.906 245.383 179.866 239.764 179.866 239.764C179.866 239.764 177.663 199.588 177.583 191.841C177.583 191.841 177.263 187.747 177.423 186.824C177.543 185.901 176.863 182.73 181.708 182.449C186.553 182.128 195.642 182.168 198.645 181.888C201.648 181.647 203.13 185.098 203.13 185.098Z" fill="#231F20"/>
<path d="M209.176 184.577C209.176 184.577 209.697 201.113 209.857 206.13C210.017 211.147 214.382 210.705 214.382 210.705L231.359 210.906C231.359 210.906 236.204 210.906 234.242 205.809C232.28 200.712 227.555 186.142 226.114 184.055C224.672 181.968 224.032 181.165 220.708 181.165C217.385 181.165 211.339 181.486 211.339 181.486C211.339 181.486 209.096 181.406 209.176 184.577Z" fill="#82D0E7"/>
<path d="M161.567 202.517C161.567 202.517 162.368 214.599 162.208 218.452C162.047 222.265 158.644 222.706 158.644 222.706C158.644 222.706 107.831 222.867 103.467 222.746C99.1024 222.586 99.9433 218.492 99.9433 218.492L99.9833 201.996C99.9833 201.996 113.157 196.055 130.735 198.745C148.273 201.394 161.567 202.517 161.567 202.517Z" fill="#82D0E7"/>
<path d="M125.65 248.193C125.65 248.193 125.49 238.159 135.18 237.717C144.87 237.275 144.069 250.962 144.069 250.962C144.069 250.962 144.429 260.836 135.22 260.515C126.05 260.193 125.249 251.283 125.65 248.193Z" fill="#231F20"/>
<path d="M226.354 248.594C226.354 248.594 228.036 239.282 236.685 239.443C245.334 239.604 245.534 251.323 245.534 251.323C245.534 251.323 245.694 261.357 235.403 261.96C225.153 262.602 226.594 250.561 226.354 248.594Z" fill="#231F20"/>
<path d="M271 233.864C271 233.864 264.113 232.861 263.553 238.801C262.992 244.741 270.84 245.102 270.84 245.102L271 233.864Z" fill="#FFDB15"/>
<path d="M228.436 176.469C228.436 176.469 230.077 167.519 228.115 166.355C226.153 165.191 130.014 165.11 117.882 165.512C105.789 165.913 91.254 166.355 91.254 166.355L92.0148 176.188C92.0148 176.228 200.287 174.141 228.436 176.469Z" fill="#231F20"/>
<path d="M91.975 239.403C91.5346 239.604 86.2892 239.604 86.2892 239.604L86.4894 245.785L92.1753 245.584L91.975 239.403Z" fill="#231F20"/>
<path d="M110.434 200.23C101.785 198.825 72.9154 199.668 72.1546 194.129C71.3538 188.59 83.0058 175.225 83.0058 175.225C83.0058 175.225 90.6137 166.917 67.9102 170.288C54.7366 170.93 88.011 148.654 92.7359 144.36C97.4607 140.065 103.587 128.064 95.0983 121.321C86.6095 114.579 78.7614 120.198 70.9133 123.89C63.1052 127.583 46.6082 142.875 38.5999 148.133C30.5516 153.391 24.7056 154.996 21.1018 149.979C17.4981 144.962 29.8709 136.292 29.8709 136.292C29.8709 136.292 45.447 123.248 71.4739 112.813C88.1311 106.15 92.5757 97.1995 90.6137 87.7273C88.6116 78.2551 59.9019 85.1184 46.9686 93.3464C40.4819 97.4403 36.6779 94.9117 36.9983 88.8912C37.3186 82.8707 53.3351 73.238 58.02 69.3849C62.7048 65.5318 60.5025 58.6685 54.6165 63.8862C48.7704 69.0638 28.069 80.4626 20.1408 84.3959C12.2127 88.3293 7.60789 100.772 23.7446 104.544C39.8812 108.277 35.1564 113.655 26.4674 121.482C17.7784 129.309 1.3214 130.111 0.160197 139.824C-1.001 149.537 5.80603 158.046 16.6973 159.17C27.5885 160.294 53.6154 149.899 53.6154 149.899C70.2726 144.681 65.3476 155.598 59.7017 160.374C55.7376 163.746 33.9952 176.268 33.9952 176.268C33.9952 176.268 19.1398 184.175 24.5454 191.48C29.1902 197.741 44.8464 191.6 44.8464 191.6C44.8464 191.6 72.1145 183.894 64.7469 190.838C57.2592 197.902 44.8464 205.929 44.8464 205.929C35.3566 213.997 50.252 217.288 60.943 216.244C72.1145 215.12 110.434 205.407 110.434 205.407V200.23Z" fill="#82D0E7"/>
<path d="M101.745 189.312C101.745 189.312 97.2603 202.999 97.0201 204.002C96.7798 205.006 97.1002 206.692 97.1002 206.692L99.9831 206.611L101.505 204.444L102.666 204.404L103.146 206.13L107.911 206.37L109.713 204.364H112.716C112.716 204.364 113.918 206.21 114.318 206.411C114.758 206.611 120.324 206.21 120.324 206.21L121.846 203.641C121.846 203.641 127.291 203.601 127.411 203.601C127.572 203.601 129.053 206.049 129.053 206.049L134.459 205.929L136.701 202.999L142.707 203.039L143.708 205.768C143.708 205.768 150.996 205.528 151.076 205.528C151.436 205.528 152.718 202.718 152.718 202.718L156.882 202.758L157.763 205.126C157.763 205.126 163.449 205.166 164.169 204.885C164.93 204.564 164.089 202.236 164.089 202.236L156.722 187.506L101.745 189.312Z" fill="#231F20"/>
<path d="M268 69C270.209 69 272 67.433 272 65.5C272 63.567 270.209 62 268 62C265.791 62 264 63.567 264 65.5C264 67.433 265.791 69 268 69Z" fill="#FDD213"/>
</g>
<path d="M286.113 217.573C287.296 216.389 287.296 214.418 286.113 213.234C284.93 212.051 282.958 212.051 281.775 213.234C281.38 213.629 281.577 214.418 282.169 215.404L280 217.573L281.972 219.347L284.141 217.178C284.93 217.77 285.718 217.967 286.113 217.573Z" fill="#00BA89"/>
<path fill-rule="evenodd" clip-rule="evenodd" d="M118.211 3.14761C118.211 1.37708 119.588 0 121.359 0C123.129 0 124.506 1.37708 124.506 3.14761C124.506 4.91814 123.129 6.29522 121.359 6.29522C119.588 6.29522 118.211 4.91814 118.211 3.14761ZM119.391 3.14762C119.391 4.32797 120.178 5.11487 121.359 5.11487C122.342 5.11487 123.326 4.32797 123.326 3.14762C123.326 1.96726 122.539 1.18036 121.359 1.18036C120.178 1.18036 119.391 1.96726 119.391 3.14762Z" fill="#EB212A"/>
<path fill-rule="evenodd" clip-rule="evenodd" d="M38.75 286.927C38.75 285.353 40.1271 283.976 41.7009 283.976C43.2747 283.976 44.455 285.353 44.6518 286.927C44.6518 288.501 43.2747 289.878 41.7009 289.878C40.1271 289.878 38.75 288.501 38.75 286.927ZM39.9305 286.927C39.9305 287.911 40.7174 288.697 41.701 288.697C42.6847 288.697 43.4716 287.911 43.4716 286.927C43.4716 285.943 42.6847 285.156 41.701 285.156C40.7174 285.156 39.9305 285.943 39.9305 286.927Z" fill="#EB212A"/>
<path d="M55.5 232.347C57.433 232.347 59 230.78 59 228.847C59 226.914 57.433 225.347 55.5 225.347C53.567 225.347 52 226.914 52 228.847C52 230.78 53.567 232.347 55.5 232.347Z" fill="#FDD213"/>
<path d="M17.5 45.3472C19.433 45.3472 21 43.5563 21 41.3472C21 39.138 19.433 37.3472 17.5 37.3472C15.567 37.3472 14 39.138 14 41.3472C14 43.5563 15.567 45.3472 17.5 45.3472Z" fill="#FDD213"/>
<path d="M158.827 26.2952C158.155 26.2952 157.706 25.6838 157.706 25.0725C158.155 23.0345 156.586 20.9965 154.121 20.5889C153.448 20.5889 153 19.9775 153 19.3662C153 18.7548 153.672 18.3472 154.345 18.3472C157.93 18.9586 160.396 22.0155 159.947 25.2763C160.172 26.0914 159.499 26.499 158.827 26.2952Z" fill="#FDD213"/>
<path d="M216 229.347C217.657 229.347 219 228.228 219 226.847C219 225.466 217.657 224.347 216 224.347C214.343 224.347 213 225.466 213 226.847C213 228.228 214.343 229.347 216 229.347Z" fill="#FDD213"/>
<path d="M271.79 199.313C269.914 199.091 268.663 197.315 269.08 195.318C269.289 193.32 270.956 191.989 272.832 192.433C273.457 192.433 273.665 193.542 273.874 194.652L277 195.096L276.583 197.981L273.249 197.537C273.04 198.647 272.415 199.535 271.79 199.313Z" fill="#00BA89"/>
<path d="M86 41.3472C88.2091 41.3472 90 39.7802 90 37.8472C90 35.9142 88.2091 34.3472 86 34.3472C83.7909 34.3472 82 35.9142 82 37.8472C82 39.7802 83.7909 41.3472 86 41.3472Z" fill="#FDD213"/>
<defs>
<clipPath id="clip0">
<rect width="271" height="200" fill="white" transform="translate(0 62)"/>
</clipPath>
</defs>
</svg>
